<?xml version="1.0" encoding="UTF-8" standalone="no"?>
<!DOCTYPE svg PUBLIC "-//W3C//DTD SVG 1.1//EN"
 "http://www.w3.org/Graphics/SVG/1.1/DTD/svg11.dtd">
<!-- Generated by graphviz version 12.1.1 (20240910.0053)
 -->
<!-- Title: INFRA Pages: 1 -->
<svg width="912pt" height="188pt"
 viewBox="0.00 0.00 911.59 188.00" xmlns="http://www.w3.org/2000/svg" xmlns:xlink="http://www.w3.org/1999/xlink">
<g id="graph0" class="graph" transform="scale(1 1) rotate(0) translate(4 184)">
<title>INFRA</title>
<polygon fill="white" stroke="none" points="-4,4 -4,-184 907.59,-184 907.59,4 -4,4"/>
<!-- backend&#45;ecr&#45;repository -->
<g id="node1" class="node">
<title>backend&#45;ecr&#45;repository</title>
<path fill="#fff5cd" stroke="black" stroke-width="2" d="M179.77,-65.45C179.77,-69.07 141.84,-72 95.14,-72 48.45,-72 10.52,-69.07 10.52,-65.45 10.52,-65.45 10.52,-6.55 10.52,-6.55 10.52,-2.93 48.45,0 95.14,0 141.84,0 179.77,-2.93 179.77,-6.55 179.77,-6.55 179.77,-65.45 179.77,-65.45"/>
<path fill="none" stroke="black" stroke-width="2" d="M179.77,-65.45C179.77,-61.84 141.84,-58.91 95.14,-58.91 48.45,-58.91 10.52,-61.84 10.52,-65.45"/>
<text text-anchor="middle" x="95.14" y="-40.2" font-family="Arial" font-size="14.00">backend&#45;ecr&#45;repository</text>
<text text-anchor="middle" x="95.14" y="-23.4" font-family="Arial" font-size="14.00">(AWS::ECR::Repository)</text>
</g>
<!-- apprunner&#45;service -->
<g id="node2" class="node">
<title>apprunner&#45;service</title>
<path fill="#b7e0ff" stroke="black" stroke-width="2" d="M178.28,-180C178.28,-180 12,-180 12,-180 6,-180 0,-174 0,-168 0,-168 0,-120 0,-120 0,-114 6,-108 12,-108 12,-108 178.28,-108 178.28,-108 184.28,-108 190.28,-114 190.28,-120 190.28,-120 190.28,-168 190.28,-168 190.28,-174 184.28,-180 178.28,-180"/>
<text text-anchor="middle" x="95.14" y="-148.2" font-family="Arial" font-size="14.00">apprunner&#45;service</text>
<text text-anchor="middle" x="95.14" y="-131.4" font-family="Arial" font-size="14.00">(AWS::AppRunner::Service)</text>
</g>
<!-- apprunner&#45;service&#45;&gt;backend&#45;ecr&#45;repository -->
<g id="edge1" class="edge">
<title>apprunner&#45;service&#45;&gt;backend&#45;ecr&#45;repository</title>
<path fill="none" stroke="black" d="M95.14,-107.7C95.14,-99.93 95.14,-91.57 95.14,-83.43"/>
<polygon fill="black" stroke="black" points="98.64,-83.66 95.14,-73.66 91.64,-83.66 98.64,-83.66"/>
</g>
<!-- apprunner&#45;iam&#45;role -->
<g id="node3" class="node">
<title>apprunner&#45;iam&#45;role</title>
<path fill="#e6e6e6" stroke="black" stroke-width="2" d="M337.67,-72C337.67,-72 226.61,-72 226.61,-72 220.61,-72 214.61,-66 214.61,-60 214.61,-60 214.61,-12 214.61,-12 214.61,-6 220.61,0 226.61,0 226.61,0 337.67,0 337.67,0 343.67,0 349.67,-6 349.67,-12 349.67,-12 349.67,-60 349.67,-60 349.67,-66 343.67,-72 337.67,-72"/>
<text text-anchor="middle" x="282.14" y="-40.2" font-family="Arial" font-size="14.00">apprunner&#45;iam&#45;role</text>
<text text-anchor="middle" x="282.14" y="-23.4" font-family="Arial" font-size="14.00">(AWS::IAM::Role)</text>
</g>
<!-- apprunner&#45;iam&#45;policy -->
<g id="node4" class="node">
<title>apprunner&#45;iam&#45;policy</title>
<path fill="#e6e6e6" stroke="black" stroke-width="2" d="M343.89,-180C343.89,-180 220.39,-180 220.39,-180 214.39,-180 208.39,-174 208.39,-168 208.39,-168 208.39,-120 208.39,-120 208.39,-114 214.39,-108 220.39,-108 220.39,-108 343.89,-108 343.89,-108 349.89,-108 355.89,-114 355.89,-120 355.89,-120 355.89,-168 355.89,-168 355.89,-174 349.89,-180 343.89,-180"/>
<text text-anchor="middle" x="282.14" y="-148.2" font-family="Arial" font-size="14.00">apprunner&#45;iam&#45;policy</text>
<text text-anchor="middle" x="282.14" y="-131.4" font-family="Arial" font-size="14.00">(AWS::IAM::Policy)</text>
</g>
<!-- apprunner&#45;iam&#45;policy&#45;&gt;apprunner&#45;iam&#45;role -->
<g id="edge2" class="edge">
<title>apprunner&#45;iam&#45;policy&#45;&gt;apprunner&#45;iam&#45;role</title>
<path fill="none" stroke="black" d="M282.14,-107.7C282.14,-99.93 282.14,-91.57 282.14,-83.43"/>
<polygon fill="black" stroke="black" points="285.64,-83.66 282.14,-73.66 278.64,-83.66 285.64,-83.66"/>
</g>
<!-- frontend&#45;s3&#45;bucket -->
<g id="node5" class="node">
<title>frontend&#45;s3&#45;bucket</title>
<path fill="#fff5cd" stroke="black" stroke-width="2" d="M546.51,-65.45C546.51,-69.07 516.76,-72 480.14,-72 443.52,-72 413.78,-69.07 413.78,-65.45 413.78,-65.45 413.78,-6.55 413.78,-6.55 413.78,-2.93 443.52,0 480.14,0 516.76,0 546.51,-2.93 546.51,-6.55 546.51,-6.55 546.51,-65.45 546.51,-65.45"/>
<path fill="none" stroke="black" stroke-width="2" d="M546.51,-65.45C546.51,-61.84 516.76,-58.91 480.14,-58.91 443.52,-58.91 413.78,-61.84 413.78,-65.45"/>
<text text-anchor="middle" x="480.14" y="-40.2" font-family="Arial" font-size="14.00">frontend&#45;s3&#45;bucket</text>
<text text-anchor="middle" x="480.14" y="-23.4" font-family="Arial" font-size="14.00">(AWS::S3::Bucket)</text>
</g>
<!-- cloudfront&#45;distribution -->
<g id="node6" class="node">
<title>cloudfront&#45;distribution</title>
<path fill="#e78f81" stroke="black" stroke-width="2" d="M574.17,-180C574.17,-180 386.11,-180 386.11,-180 380.11,-180 374.11,-174 374.11,-168 374.11,-168 374.11,-120 374.11,-120 374.11,-114 380.11,-108 386.11,-108 386.11,-108 574.17,-108 574.17,-108 580.17,-108 586.17,-114 586.17,-120 586.17,-120 586.17,-168 586.17,-168 586.17,-174 580.17,-180 574.17,-180"/>
<text text-anchor="middle" x="480.14" y="-148.2" font-family="Arial" font-size="14.00">cloudfront&#45;distribution</text>
<text text-anchor="middle" x="480.14" y="-131.4" font-family="Arial" font-size="14.00">(AWS::CloudFront::Distribution)</text>
</g>
<!-- cloudfront&#45;distribution&#45;&gt;frontend&#45;s3&#45;bucket -->
<g id="edge3" class="edge">
<title>cloudfront&#45;distribution&#45;&gt;frontend&#45;s3&#45;bucket</title>
<path fill="none" stroke="black" d="M480.14,-107.7C480.14,-99.93 480.14,-91.57 480.14,-83.43"/>
<polygon fill="black" stroke="black" points="483.64,-83.66 480.14,-73.66 476.64,-83.66 483.64,-83.66"/>
</g>
<!-- cloudfront&#45;origin&#45;access&#45;identity -->
<g id="node7" class="node">
<title>cloudfront&#45;origin&#45;access&#45;identity</title>
<path fill="#e6e6e6" stroke="black" stroke-width="2" d="M891.59,-72C891.59,-72 576.7,-72 576.7,-72 570.7,-72 564.7,-66 564.7,-60 564.7,-60 564.7,-12 564.7,-12 564.7,-6 570.7,0 576.7,0 576.7,0 891.59,0 891.59,0 897.59,0 903.59,-6 903.59,-12 903.59,-12 903.59,-60 903.59,-60 903.59,-66 897.59,-72 891.59,-72"/>
<text text-anchor="middle" x="734.14" y="-40.2" font-family="Arial" font-size="14.00">cloudfront&#45;origin&#45;access&#45;identity</text>
<text text-anchor="middle" x="734.14" y="-23.4" font-family="Arial" font-size="14.00">(AWS::CloudFront::CloudFrontOriginAccessIdentity)</text>
</g>
<!-- s3&#45;bucket&#45;policy -->
<g id="node8" class="node">
<title>s3&#45;bucket&#45;policy</title>
<path fill="#e6e6e6" stroke="black" stroke-width="2" d="M785.16,-180C785.16,-180 639.12,-180 639.12,-180 633.12,-180 627.12,-174 627.12,-168 627.12,-168 627.12,-120 627.12,-120 627.12,-114 633.12,-108 639.12,-108 639.12,-108 785.16,-108 785.16,-108 791.16,-108 797.16,-114 797.16,-120 797.16,-120 797.16,-168 797.16,-168 797.16,-174 791.16,-180 785.16,-180"/>
<text text-anchor="middle" x="712.14" y="-148.2" font-family="Arial" font-size="14.00">s3&#45;bucket&#45;policy</text>
<text text-anchor="middle" x="712.14" y="-131.4" font-family="Arial" font-size="14.00">(AWS::S3::BucketPolicy)</text>
</g>
<!-- s3&#45;bucket&#45;policy&#45;&gt;frontend&#45;s3&#45;bucket -->
<g id="edge4" class="edge">
<title>s3&#45;bucket&#45;policy&#45;&gt;frontend&#45;s3&#45;bucket</title>
<path fill="none" stroke="black" d="M634.35,-107.68C611.9,-97.46 587.19,-86.2 557.23,-72.49"/>
<polygon fill="black" stroke="black" points="558.79,-69.36 548.24,-68.38 555.87,-75.72 558.79,-69.36"/>
</g>
<!-- s3&#45;bucket&#45;policy&#45;&gt;cloudfront&#45;origin&#45;access&#45;identity -->
<g id="edge5" class="edge">
<title>s3&#45;bucket&#45;policy&#45;&gt;cloudfront&#45;origin&#45;access&#45;identity</title>
<path fill="none" stroke="black" d="M719.47,-107.7C721.1,-99.84 722.85,-91.38 724.56,-83.15"/>
<polygon fill="black" stroke="black" points="727.93,-84.13 726.54,-73.62 721.08,-82.7 727.93,-84.13"/>
</g>
</g>
</svg>
